<?xml version="1.0" encoding="UTF-8" standalone="no"?>
<!-- Created with Inkscape (http://www.inkscape.org/) -->

<svg
   width="210mm"
   height="297mm"
   viewBox="0 0 210 297"
   version="1.1"
   id="svg5"
   inkscape:version="1.2.2 (732a01da63, 2022-12-09)"
   sodipodi:docname="cucc.svg"
   xmlns:inkscape="http://www.inkscape.org/namespaces/inkscape"
   xmlns:sodipodi="http://sodipodi.sourceforge.net/DTD/sodipodi-0.dtd"
   xmlns="http://www.w3.org/2000/svg"
   xmlns:svg="http://www.w3.org/2000/svg">
  <sodipodi:namedview
     id="namedview7"
     pagecolor="#ffffff"
     bordercolor="#000000"
     borderopacity="0.25"
     inkscape:showpageshadow="2"
     inkscape:pageopacity="0.0"
     inkscape:pagecheckerboard="0"
     inkscape:deskcolor="#d1d1d1"
     inkscape:document-units="mm"
     showgrid="false"
     inkscape:zoom="0.74564394"
     inkscape:cx="128.74778"
     inkscape:cy="454.64059"
     inkscape:window-width="1920"
     inkscape:window-height="1017"
     inkscape:window-x="-8"
     inkscape:window-y="-8"
     inkscape:window-maximized="1"
     inkscape:current-layer="layer1" />
  <defs
     id="defs2" />
  <g
     inkscape:label="Réteg 1"
     inkscape:groupmode="layer"
     id="layer1">
    <rect
       style="fill:none;stroke:none;stroke-width:0.264583"
       id="rect111"
       width="68.129028"
       height="68.129028"
       x="28.032257"
       y="60.677422" />
    <rect
       style="fill:none;stroke:none;stroke-width:0.264583"
       id="rect477"
       width="49.322578"
       height="41.161293"
       x="47.19355"
       y="67.064514" />
    <rect
       style="fill:none;stroke:none;stroke-width:0.264583"
       id="rect479"
       width="39.741932"
       height="37.612904"
       x="15.967742"
       y="65.290321" />
    <rect
       style="fill:none;stroke:none;stroke-width:0.264583"
       id="rect481"
       width="88.417732"
       height="54.645161"
       x="11"
       y="51.096775" />
    <rect
       style="fill:none;stroke:none;stroke-width:0.264583"
       id="rect483"
       width="6.032258"
       height="6.032258"
       x="95.80645"
       y="105.3871" />
    <rect
       style="fill:none;stroke:none;stroke-width:0.264583"
       id="rect485"
       width="56.774193"
       height="56.774193"
       x="51.451611"
       y="45.774193" />
    <rect
       style="fill:#000080;stroke:none;stroke-width:0.264583"
       id="rect487"
       width="67.064522"
       height="66"
       x="-418"
       y="-387.83871" />
    <path
       id="path722"
       style="fill:#ffffff;stroke:#0000ff;stroke-width:0.274638"
       d="M 53.986442,20.586301 A 32.717834,25.22682 0 0 0 21.449473,43.317208 32.717834,25.22682 0 0 0 32.593644,44.842807 32.717834,25.22682 0 0 0 65.133057,22.097769 32.717834,25.22682 0 0 0 53.986442,20.586301 Z" />
    <path
       id="path997"
       style="fill:#00ffff;stroke:#0000ff;stroke-width:0.264583"
       d="m 110.35503,13.12907 a 13.129032,13.129032 0 0 0 -13.129436,13.128914 13.129032,13.129032 0 0 0 5.374346,10.582817 13.483871,13.483871 0 0 0 -0.40617,3.256132 13.483871,13.483871 0 0 0 13.48341,13.483931 13.483871,13.483871 0 0 0 11.87628,-7.11843 14.370967,14.370967 0 0 0 12.78527,7.82795 14.370967,14.370967 0 0 0 14.37018,-14.361916 11.17742,11.17742 0 0 0 7.80727,-10.654131 11.17742,11.17742 0 0 0 -11.17761,-11.177612 11.17742,11.17742 0 0 0 -6.9603,2.43241 13.306451,13.306451 0 0 0 -9.36222,-3.851961 13.306451,13.306451 0 0 0 -11.76724,7.113777 13.129032,13.129032 0 0 0 -12.89378,-10.661881 z" />
    <path
       id="path1010"
       style="fill:#ffff00;stroke:#0000ff;stroke-width:0.264583"
       d="m 54.645137,64.93554 a 31.225807,31.225807 0 0 0 -31.226001,31.226 31.225807,31.225807 0 0 0 31.226001,31.22549 31.225807,31.225807 0 0 0 6.032706,-0.60979 A 30.842438,30.842438 0 0 1 33.383385,96.16102 30.842438,30.842438 0 0 1 60.740372,65.538087 31.225807,31.225807 0 0 0 54.645137,64.93554 Z" />
  </g>
</svg>
