<?xml version="1.0" encoding="UTF-8" standalone="no"?>
<!-- Created with Inkscape (http://www.inkscape.org/) -->

<svg
   width="210mm"
   height="297mm"
   viewBox="0 0 210 297"
   version="1.1"
   id="svg5"
   inkscape:version="1.2.2 (732a01da63, 2022-12-09)"
   sodipodi:docname="POLOOOOOOO.svg"
   xmlns:inkscape="http://www.inkscape.org/namespaces/inkscape"
   xmlns:sodipodi="http://sodipodi.sourceforge.net/DTD/sodipodi-0.dtd"
   xmlns:xlink="http://www.w3.org/1999/xlink"
   xmlns="http://www.w3.org/2000/svg"
   xmlns:svg="http://www.w3.org/2000/svg">
  <sodipodi:namedview
     id="namedview7"
     pagecolor="#ffffff"
     bordercolor="#999999"
     borderopacity="1"
     inkscape:showpageshadow="0"
     inkscape:pageopacity="0"
     inkscape:pagecheckerboard="0"
     inkscape:deskcolor="#d1d1d1"
     inkscape:document-units="mm"
     showgrid="false"
     inkscape:zoom="1.4142136"
     inkscape:cx="325.26912"
     inkscape:cy="561.44278"
     inkscape:window-width="1920"
     inkscape:window-height="1017"
     inkscape:window-x="-8"
     inkscape:window-y="-8"
     inkscape:window-maximized="1"
     inkscape:current-layer="layer1" />
  <defs
     id="defs2" />
  <g
     inkscape:label="Réteg 1"
     inkscape:groupmode="layer"
     id="layer1">
    <path
       id="rect286"
       style="fill:#008000;stroke:#000000;stroke-width:0.5;stroke-dasharray:none"
       d="M 61.071208 77.421631 L 6.5680745 118.29872 L 27.00662 145.55029 L 61.071208 120.00198 L 61.071208 219.57833 L 148.92889 219.57833 L 148.92889 120.00146 L 182.99917 145.5446 L 203.43306 118.28994 L 148.92889 77.425765 L 148.92889 77.421631 L 148.92321 77.421631 L 131.5651 77.421631 A 27.411291 27.411291 0 0 1 104.99979 98.179537 A 27.411291 27.411291 0 0 1 78.435006 77.421631 L 61.071208 77.421631 z " />
    <path
       id="path1890"
       style="fill:none;stroke:#000000;stroke-width:0.499999"
       d="m 83.775862,150.12715 a 21.79583,21.79583 0 0 1 16.264898,-26.18339 21.79583,21.79583 0 0 1 26.18338,16.2649 21.79583,21.79583 0 0 1 -16.2649,26.18338 21.79583,21.79583 0 0 1 -26.183378,-16.26489 z" />
    <text
       xml:space="preserve"
       style="font-weight:bold;font-size:6.35px;font-family:sans-serif;-inkscape-font-specification:'sans-serif Bold';letter-spacing:0.105833px;fill:none;stroke:#000000;stroke-width:0.499999;stroke-dasharray:none"
       id="text2724"
       transform="translate(-0.07003038)"><textPath
         xlink:href="#path1890"
         id="textPath2879"><tspan
           id="tspan2722"
           style="font-size:6.35px;fill:#ffffff;stroke:none;stroke-width:0.5">Nagyatádi Ady Iskola</tspan></textPath></text>
  </g>
</svg>
