<?xml version="1.0" encoding="UTF-8" standalone="no"?>
<!-- Created with Inkscape (http://www.inkscape.org/) -->

<svg
   width="210mm"
   height="297mm"
   viewBox="0 0 210 297"
   version="1.1"
   id="svg5"
   xml:space="preserve"
   inkscape:version="1.2.2 (732a01da63, 2022-12-09)"
   sodipodi:docname="rpbptika.svg"
   xmlns:inkscape="http://www.inkscape.org/namespaces/inkscape"
   xmlns:sodipodi="http://sodipodi.sourceforge.net/DTD/sodipodi-0.dtd"
   xmlns="http://www.w3.org/2000/svg"
   xmlns:svg="http://www.w3.org/2000/svg"><sodipodi:namedview
     id="namedview7"
     pagecolor="#ffffff"
     bordercolor="#999999"
     borderopacity="1"
     inkscape:showpageshadow="0"
     inkscape:pageopacity="0"
     inkscape:pagecheckerboard="0"
     inkscape:deskcolor="#d1d1d1"
     inkscape:document-units="mm"
     showgrid="false"
     inkscape:zoom="1.0544998"
     inkscape:cx="505.45293"
     inkscape:cy="474.63263"
     inkscape:window-width="958"
     inkscape:window-height="1008"
     inkscape:window-x="953"
     inkscape:window-y="0"
     inkscape:window-maximized="0"
     inkscape:current-layer="layer1" /><defs
     id="defs2" /><g
     inkscape:label="Réteg 1"
     inkscape:groupmode="layer"
     id="layer1"><path
       style="fill:#000000;stroke-width:0.0375084"
       d="m 85.364039,169.79203 c -0.205223,-0.0877 -0.130536,0.30539 -0.837415,-4.40791 -0.22953,-1.53037 -0.339769,-2.26378 -0.487705,-3.24447 -0.08402,-0.55699 -0.202145,-1.34186 -0.262487,-1.74414 -0.06032,-0.40227 -0.152182,-1.01023 -0.204088,-1.35101 -0.0519,-0.34077 -0.145633,-0.96414 -0.208301,-1.38525 -0.06268,-0.42111 -0.12173,-0.77344 -0.131244,-0.78296 -0.02348,-0.0235 -0.02539,-0.0173 -0.265655,0.85412 -0.116293,0.4218 -0.236708,0.80548 -0.267587,0.85261 -0.03089,0.0472 -0.11772,0.10278 -0.192957,0.12371 -0.08627,0.0239 -1.089938,0.0381 -2.715501,0.0382 l -2.578697,2.1e-4 v -0.37481 -0.37481 l 2.461539,-0.0101 2.461551,-0.0101 0.428789,-1.5566 c 0.235843,-0.85612 0.452523,-1.59306 0.481538,-1.63765 0.0784,-0.12043 0.289917,-0.18056 0.416657,-0.11842 0.196214,0.0961 0.226655,0.19006 0.368839,1.13718 0.07436,0.49512 0.184544,1.22934 0.244931,1.63162 0.06043,0.40228 0.161359,1.07742 0.224386,1.50034 0.06302,0.4229 0.130929,0.87019 0.150879,0.99396 0.01999,0.12378 0.08649,0.56263 0.147958,0.97522 0.06144,0.41259 0.162639,1.08774 0.224914,1.50033 0.204638,1.35553 0.416253,2.76841 0.477527,3.18822 0.05908,0.40483 0.121236,0.62488 0.123673,0.438 4.61e-4,-0.048 0.02606,-0.38549 0.05661,-0.75017 0.05718,-0.68319 0.148823,-1.80277 0.281516,-3.43867 0.04179,-0.51574 0.09278,-1.14026 0.113103,-1.38781 0.02033,-0.24755 0.07122,-0.87207 0.113103,-1.38782 0.04179,-0.51573 0.109856,-1.35123 0.151092,-1.85665 0.07414,-0.90825 0.09424,-1.15483 0.278988,-3.43202 0.0519,-0.63951 0.111205,-1.3653 0.131682,-1.61286 0.02056,-0.24756 0.07088,-0.86363 0.111879,-1.36905 0.10087,-1.24415 0.213108,-2.61735 0.298825,-3.65642 l 0.0711,-0.86204 0.116169,-0.10379 c 0.182128,-0.16274 0.453984,-0.12386 0.563391,0.0805 0.02,0.0374 0.104465,0.80874 0.187588,1.71409 0.08312,0.90535 0.218926,2.38032 0.301689,3.27771 0.08279,0.89739 0.234754,2.5515 0.33777,3.67581 0.103005,1.12433 0.236641,2.58161 0.296927,3.23842 0.06032,0.65682 0.118596,1.20317 0.129548,1.21412 0.01123,0.0112 0.06717,-0.0591 0.12483,-0.15558 0.442301,-0.73974 0.679953,-1.09404 0.761548,-1.13532 0.07335,-0.0371 0.861914,-0.0474 3.647462,-0.0479 1.954661,-2.9e-4 3.553916,-0.0119 3.553916,-0.0259 0,-0.0139 -0.317315,-0.34731 -0.705149,-0.74079 -2.116322,-2.14715 -3.210956,-3.92149 -3.511759,-5.6923 -0.06167,-0.36297 -0.08245,-1.14469 -0.03887,-1.45959 0.313024,-2.26071 1.816284,-3.78096 4.006035,-4.05134 0.422273,-0.0521 1.257206,-0.0225 1.63147,0.058 1.0361,0.22265 1.923184,0.77371 2.538314,1.57682 0.11896,0.1553 0.22185,0.28237 0.22866,0.28237 0.007,0 0.0808,-0.0926 0.16439,-0.20579 0.91692,-1.24118 2.28622,-1.86346 3.83383,-1.74226 2.30861,0.1808 3.96599,1.57628 4.38512,3.69219 0.0861,0.43453 0.0684,1.48894 -0.0331,1.97408 -0.29165,1.39384 -1.1035,2.88686 -2.44254,4.49188 -0.3892,0.46652 -1.38477,1.54126 -1.57948,1.7051 -0.0671,0.0564 -0.11562,0.10885 -0.10784,0.11648 0.008,0.008 1.76104,0.0263 3.8962,0.0413 3.16378,0.0225 3.89648,0.0368 3.95974,0.0783 0.0427,0.0279 0.21758,0.3082 0.38863,0.62286 0.17105,0.31467 0.32425,0.5864 0.34044,0.60385 0.0418,0.0451 0.055,-0.0617 0.24257,-1.96341 0.2566,-2.60201 0.75285,-7.60568 0.91881,-9.26455 l 0.14824,-1.4816 0.11457,-0.10311 c 0.13113,-0.11806 0.31176,-0.13643 0.44233,-0.0449 0.16012,0.1121 0.13544,-0.0668 0.34621,2.51113 0.0422,0.51574 0.10166,1.24575 0.1321,1.62224 0.0304,0.37648 0.0804,0.99256 0.11087,1.36905 0.0304,0.3765 0.0895,1.10228 0.13128,1.61287 0.0418,0.51057 0.10974,1.34607 0.1511,1.85666 0.0414,0.51058 0.0919,1.13087 0.11233,1.37843 0.0203,0.24755 0.0705,0.86362 0.11143,1.36905 0.041,0.50543 0.10828,1.33249 0.14968,1.83791 0.0415,0.50543 0.10919,1.34092 0.15065,1.85666 0.0895,1.11325 0.12812,1.58239 0.22681,2.7557 0.0408,0.48415 0.074,0.96098 0.074,1.05962 0,0.0986 0.0169,0.17932 0.0375,0.17932 0.0207,0 0.0375,-0.0131 0.0375,-0.029 0,-0.051 1.64796,-10.75096 1.66986,-10.84218 0.076,-0.31674 0.53866,-0.359 0.68352,-0.0625 0.0201,0.0412 0.21921,0.72907 0.44233,1.52847 l 0.4057,1.45344 h 2.18764 2.18764 v 0.3759 0.37589 l -2.39971,-0.0101 -2.39969,-0.0101 -0.0957,-0.0957 c -0.0745,-0.0745 -0.1418,-0.26164 -0.30351,-0.84343 -0.20242,-0.72819 -0.22524,-0.79694 -0.25386,-0.76439 -0.0115,0.013 -0.1256,0.72676 -0.32943,2.05984 -0.0204,0.13409 -0.0518,0.33663 -0.0696,0.45009 -0.0177,0.11347 -0.0674,0.43416 -0.11019,0.71267 -1.13411,7.3763 -1.42288,9.19506 -1.46874,9.25035 -0.0289,0.0348 -0.10863,0.0868 -0.17732,0.1155 -0.11076,0.0463 -0.14023,0.0446 -0.26256,-0.0152 -0.0758,-0.0371 -0.15673,-0.10952 -0.1799,-0.16113 -0.0231,-0.0515 -0.0785,-0.54949 -0.12304,-1.10649 -0.0445,-0.557 -0.0969,-1.19839 -0.11646,-1.42532 -0.0195,-0.22692 -0.0699,-0.84301 -0.11188,-1.36906 -0.042,-0.52605 -0.10985,-1.36577 -0.15086,-1.86603 -0.1327,-1.6205 -0.225,-2.75182 -0.28079,-3.4414 -0.10716,-1.32403 -0.16818,-2.07574 -0.24216,-2.98191 -0.0412,-0.50543 -0.10929,-1.34092 -0.15109,-1.85666 -0.0418,-0.51575 -0.0929,-1.14025 -0.11344,-1.38781 -0.0206,-0.24756 -0.0811,-0.98179 -0.13445,-1.63162 -0.0534,-0.64983 -0.10312,-1.18772 -0.11065,-1.19531 -0.0247,-0.0253 -0.0501,0.15791 -0.10839,0.78272 -0.0694,0.74305 -0.49202,5.03925 -0.5479,5.57 -0.0218,0.20629 -0.10469,1.03147 -0.18433,1.83373 -0.15875,1.59859 -0.16332,1.61741 -0.41071,1.68836 -0.23421,0.0672 -0.32709,-0.0205 -0.65659,-0.6196 -0.57189,-1.03986 -0.857,-1.55236 -0.87394,-1.57095 -0.009,-0.0101 -1.94127,-0.0272 -4.29303,-0.0375 l -4.27594,-0.0188 -0.10941,-0.12249 c -0.0725,-0.0811 -0.1094,-0.16293 -0.1094,-0.24228 0,-0.1066 0.0946,-0.21309 0.85765,-0.96525 1.29903,-1.28054 1.98691,-2.0855 2.67674,-3.13233 0.87755,-1.33171 1.31466,-2.55963 1.31556,-3.69571 10e-4,-1.72157 -0.99144,-3.09091 -2.61821,-3.61119 -1.37144,-0.43861 -2.57204,-0.29292 -3.55436,0.43129 -0.32129,0.23687 -0.71491,0.66288 -0.9299,1.00642 -0.3824,0.61101 -0.38599,0.61547 -0.5231,0.64853 -0.17508,0.0421 -0.32432,-0.0197 -0.40478,-0.16764 -0.31196,-0.57396 -0.76626,-1.12827 -1.184425,-1.44524 -0.296343,-0.22461 -0.829529,-0.47816 -1.228394,-0.58412 -0.273675,-0.0727 -0.409007,-0.0836 -1.045771,-0.0837 -0.63272,-1.5e-4 -0.775983,0.0112 -1.061744,0.0833 -1.317762,0.33323 -2.227415,1.1955 -2.652564,2.51441 -0.531614,1.6492 -0.06167,3.38657 1.466124,5.42014 0.658162,0.87604 1.449792,1.73622 2.632648,2.86055 0.571018,0.54277 0.590754,0.56656 0.590754,0.71188 0,0.19366 -0.07986,0.30444 -0.254287,0.3529 -0.09177,0.0255 -1.474875,0.0392 -4.040419,0.04 l -3.900873,0.001 -0.228183,0.38344 c -0.570479,0.95867 -0.966659,1.59123 -1.050096,1.67664 -0.13987,0.14317 -0.365009,0.13042 -0.507205,-0.0288 -0.05976,-0.0669 -0.108733,-0.15951 -0.108733,-0.20581 0,-0.0463 -0.07616,-0.91107 -0.169199,-1.92172 -0.09312,-1.01065 -0.219713,-2.3861 -0.281449,-3.05656 -0.06178,-0.67046 -0.181701,-1.987 -0.266598,-2.92565 -0.08492,-0.93864 -0.166953,-1.7204 -0.182364,-1.73723 -0.0155,-0.0169 -0.03954,0.12663 -0.05358,0.31882 -0.01404,0.19219 -0.05819,0.74608 -0.09806,1.23087 -0.09458,1.15023 -0.205627,2.51119 -0.299275,3.66645 -0.04145,0.51057 -0.09188,1.13087 -0.112327,1.37843 -0.02033,0.24755 -0.07054,0.86362 -0.11143,1.36905 -0.041,0.50543 -0.108958,1.34092 -0.151092,1.85666 -0.04212,0.51575 -0.101656,1.24575 -0.132086,1.62224 -0.07043,0.86999 -0.142263,1.75201 -0.261836,3.21634 -0.05223,0.63951 -0.119607,1.46657 -0.149755,1.83792 -0.184105,2.2676 -0.168874,2.15448 -0.30615,2.274 -0.103229,0.0899 -0.242223,0.10919 -0.375601,0.0521 z"
       id="path545" /><rect
       style="fill:none;stroke:#000000;stroke-width:1.629"
       id="rect710"
       width="170"
       height="270"
       x="14.552711"
       y="16.058167" /><circle
       style="fill:none;stroke:#000000;stroke-width:1.629"
       id="path712"
       cx="102.11991"
       cy="42.460819"
       r="6.774539" /><path
       sodipodi:type="star"
       style="fill:none;stroke:#000000;stroke-width:1.629"
       id="path766"
       inkscape:flatsided="true"
       sodipodi:sides="3"
       sodipodi:cx="101.869"
       sodipodi:cy="47.672684"
       sodipodi:r1="15.588691"
       sodipodi:r2="7.7943449"
       sodipodi:arg1="-1.5707963"
       sodipodi:arg2="-0.52359878"
       inkscape:rounded="0"
       inkscape:randomized="0"
       d="m 101.869,32.083993 13.50021,23.383036 -27.000409,0 z"
       inkscape:transform-center-y="-3.7534556"
       transform="matrix(0.37456656,0,0,0.96312309,63.963189,17.895227)" /><rect
       style="fill:none;stroke:#000000;stroke-width:1.629"
       id="rect768"
       width="74.770836"
       height="32.116333"
       x="64.009735"
       y="71.318993"
       ry="11.039989" /><path
       style="fill:none;stroke:#000000;stroke-width:1.95364"
       d="m 111.65086,32.48209 c 8.65197,2.29714 15.12398,14.54202 0.70995,18.94 l 0.94659,0.191314"
       id="path770"
       sodipodi:nodetypes="ccc" /><path
       style="fill:none;stroke:#000000;stroke-width:2.64831"
       d="m 118.14868,29.301382 c 11.87315,0.132112 21.85749,19.957064 3.63951,26.866221 l 1.3252,0.251122"
       id="path772"
       sodipodi:nodetypes="ccc" /><path
       style="fill:none;stroke:#000000;stroke-width:3.08222"
       d="m 132.46298,26.903348 c 12.11701,2.627306 19.95483,21.087832 1.0071,33.233747 l 1.34279,0.335697"
       id="path774"
       sodipodi:nodetypes="ccc" /><rect
       style="fill:none;stroke:#000000;stroke-width:1.33984"
       id="rect776"
       width="30.627869"
       height="21.756897"
       x="86.081223"
       y="103.81087"
       ry="7.3979874"
       rx="0" /><circle
       style="fill:none;stroke:#000000;stroke-width:1.629"
       id="path782"
       cx="130.09624"
       cy="126.3326"
       r="9.6599903" /><rect
       style="fill:none;stroke:#000000;stroke-width:1.629"
       id="rect778"
       width="57.207218"
       height="64.985397"
       x="72.614136"
       y="125.42708"
       ry="7.3979874"
       rx="0" /><rect
       style="fill:none;stroke:#000000;stroke-width:1.629"
       id="rect780"
       width="49.5"
       height="53.758057"
       x="76.467743"
       y="131.04074"
       ry="7.3979874" /><rect
       style="fill:none;stroke:#000000;stroke-width:1.629"
       id="rect788"
       width="7.7781744"
       height="23.334522"
       x="24.602365"
       y="218.50906"
       transform="rotate(-36.804137)" /><rect
       style="fill:none;stroke:#000000;stroke-width:2.2511"
       id="rect790"
       width="10.74859"
       height="32.24577"
       x="23.389366"
       y="186.83752"
       transform="rotate(-36.804137)" /></g></svg>
