<?xml version="1.0" encoding="UTF-8" standalone="no"?>
<!-- Created with Inkscape (http://www.inkscape.org/) -->

<svg
   width="210mm"
   height="297mm"
   viewBox="0 0 210 297"
   version="1.1"
   id="svg12"
   inkscape:version="1.2.2 (732a01da63, 2022-12-09)"
   sodipodi:docname="viharjezés.svg"
   xmlns:inkscape="http://www.inkscape.org/namespaces/inkscape"
   xmlns:sodipodi="http://sodipodi.sourceforge.net/DTD/sodipodi-0.dtd"
   xmlns="http://www.w3.org/2000/svg"
   xmlns:svg="http://www.w3.org/2000/svg">
  <sodipodi:namedview
     id="namedview14"
     pagecolor="#ffffff"
     bordercolor="#000000"
     borderopacity="0.25"
     inkscape:showpageshadow="2"
     inkscape:pageopacity="0.0"
     inkscape:pagecheckerboard="0"
     inkscape:deskcolor="#d1d1d1"
     inkscape:document-units="mm"
     showgrid="false"
     inkscape:zoom="0.74564394"
     inkscape:cx="387.58446"
     inkscape:cy="552.54255"
     inkscape:window-width="1920"
     inkscape:window-height="1017"
     inkscape:window-x="-8"
     inkscape:window-y="-8"
     inkscape:window-maximized="1"
     inkscape:current-layer="layer1" />
  <defs
     id="defs9">
    <rect
       x="158.25248"
       y="182.39268"
       width="700.06605"
       height="362.10314"
       id="rect962" />
  </defs>
  <g
     inkscape:label="Réteg 1"
     inkscape:groupmode="layer"
     id="layer1">
    <rect
       style="fill:#364860;stroke:none;stroke-width:0.264268;fill-opacity:1"
       id="rect118"
       width="199.73573"
       height="249.73573"
       x="5.1321335"
       y="23.632133" />
    <text
       xml:space="preserve"
       transform="matrix(0.26458333,0,0,0.26458333,-21.659451,-5.034166)"
       id="text960"
       style="font-size:96px;white-space:pre;shape-inside:url(#rect962);fill:#ffffff;fill-opacity:1;stroke:none"><tspan
         x="158.25195"
         y="269.97629"
         id="tspan1810"><tspan
           style="font-family:Arial;-inkscape-font-specification:Arial;fill:#c48888"
           id="tspan1808">VIHARJELZÉS</tspan></tspan></text>
    <g
       id="g1550"
       transform="translate(3.5161285,5.5199949)">
      <g
         id="g1344"
         transform="translate(3.9032258,-2.8387097)">
        <ellipse
           style="opacity:1;fill:none;fill-opacity:1;stroke:#c48888;stroke-width:1;stroke-dasharray:none;stroke-opacity:1"
           id="path1222"
           cx="102.34653"
           cy="106.50476"
           rx="3.7647059"
           ry="3.7647061" />
        <path
           style="opacity:1;fill:none;fill-opacity:1;stroke:#c48888;stroke-width:1;stroke-dasharray:none;stroke-opacity:1"
           d="m 81.612904,127.38709 15.346772,-15.34677 14.459674,14.45967 -23.68548,-23.68548 19.33646,-11.163907 0.091,0.0752"
           id="path1338" />
      </g>
      <circle
         style="opacity:1;fill:none;fill-opacity:1;stroke:#c48888;stroke-width:1;stroke-dasharray:none;stroke-opacity:1"
         id="path1475"
         cx="101.48387"
         cy="120.87302"
         r="39.387096" />
      <path
         style="opacity:1;fill:none;fill-opacity:1;stroke:#6ebec3;stroke-width:1.07254;stroke-dasharray:none;stroke-opacity:1"
         d="m 66.575518,137.2563 c 2.886776,8.47809 6.286475,-6.58083 16.585946,0 5.58331,10.35063 8.758086,-9.45915 18.217336,0 4.09379,5.36619 10.81181,-8.30086 20.12068,0 3.27747,5.70021 6.67227,-0.65261 14.54668,0 l 0.2719,-0.13596"
         id="path1477"
         sodipodi:nodetypes="cccccc" />
      <path
         style="opacity:1;fill:none;fill-opacity:1;stroke:#c48888;stroke-width:2;stroke-dasharray:none;stroke-opacity:1"
         d="M 82.549013,155.56349 118.93079,85.810827"
         id="path1535" />
      <path
         style="opacity:1;fill:none;fill-opacity:1;stroke:#6ebec3;stroke-width:0.883031;stroke-dasharray:none;stroke-opacity:1"
         d="m 74.119925,147.21414 c 2.376715,6.98011 5.175726,-5.41808 13.655397,0 4.596803,8.52179 7.210632,-7.78782 14.998538,0 3.37046,4.41804 8.90149,-6.83419 16.56558,0 2.69838,4.69304 5.49335,-0.5373 11.97645,0 l 0.22386,-0.11193"
         id="path1539"
         sodipodi:nodetypes="cccccc" />
    </g>
    <path
       style="opacity:1;fill:none;fill-opacity:1;stroke:#c48888;stroke-width:1;stroke-dasharray:none;stroke-opacity:1"
       d="m 114.66535,223.93615 c -2.79789,-0.98708 -5.35052,-1.81064 -7.15091,-2.13272 l -3.63818,-4.64182 h 0.12546"
       id="path1770"
       sodipodi:nodetypes="cccc" />
    <g
       id="g1781"
       transform="translate(3.5161285)">
      <ellipse
         style="opacity:1;fill:none;fill-opacity:1;stroke:#c48888;stroke-width:1;stroke-dasharray:none;stroke-opacity:1"
         id="ellipse1340"
         cx="120.92999"
         cy="215.81798"
         rx="3.7647059"
         ry="3.7647061" />
      <circle
         style="opacity:1;fill:none;fill-opacity:1;stroke:#c48888;stroke-width:1;stroke-dasharray:none;stroke-opacity:1"
         id="circle1481"
         cx="101.48387"
         cy="218.58064"
         r="39.387096" />
      <path
         style="opacity:1;fill:none;fill-opacity:1;stroke:#6ebec3;stroke-width:1.08208;stroke-dasharray:none;stroke-opacity:1"
         d="m 66.454581,234.36793 c 2.912464,8.55352 6.342416,-6.6394 16.73354,0 5.632994,10.44273 8.836023,-9.54333 18.379449,0 4.13022,5.41394 10.90802,-8.37474 20.29972,0 3.30664,5.75092 6.73164,-0.65842 14.67613,0 l 0.27433,-0.13718"
         id="path1537"
         sodipodi:nodetypes="cccccc" />
      <path
         style="opacity:1;fill:none;fill-opacity:1;stroke:#6ebec3;stroke-width:0.882341;stroke-dasharray:none;stroke-opacity:1"
         d="m 73.313453,244.52258 c 2.374859,6.97466 5.171683,-5.41384 13.644731,0 4.593213,8.51515 7.205001,-7.78172 14.986826,0 3.36783,4.4146 8.89454,-6.82885 16.55263,0 2.69629,4.68939 5.48907,-0.53687 11.96711,0 l 0.22369,-0.11183"
         id="path1541"
         sodipodi:nodetypes="cccccc" />
      <path
         style="opacity:1;fill:none;fill-opacity:1;stroke:#c48888;stroke-width:1;stroke-dasharray:none;stroke-opacity:1"
         d="m 75.523565,228.32706 h 33.621785 11.41635 l 11.66727,-11.66726 v 0.25091"
         id="path1658" />
      <path
         style="opacity:1;fill:none;fill-opacity:1;stroke:#c48888;stroke-width:1;stroke-dasharray:none;stroke-opacity:1"
         d="m 76.150837,224.31252 h 10.036355 l 5.790845,-10.03004 5.630212,9.7518 h 17.308011 l 4.37724,-4.37724 0.0136,-0.11179"
         id="path1768" />
      <path
         style="opacity:1;fill:none;fill-opacity:1;stroke:#c48888;stroke-width:2;stroke-dasharray:none;stroke-opacity:1"
         d="m 80.416288,251.91249 42.654502,-66.6163"
         id="path1772" />
    </g>
  </g>
</svg>
